HIERARCHY
ROOT Hips
{
    OFFSET 0.0 0.0 0.0
    CHANNELS 6 Xposition Yposition Zposition Zrotation Xrotation Yrotation
    JOINT LeftHipJoint
    {
        OFFSET 0.1 0.0 0.0
        CHANNELS 3 Zrotation Xrotation Yrotation
        JOINT LeftUpLeg
        {
            OFFSET 118.44365434326723 0.0 0.0
            CHANNELS 3 Zrotation Xrotation Yrotation
            JOINT LeftLeg
            {
                OFFSET 0.0 0.0 -400.6561695361337
                CHANNELS 3 Zrotation Xrotation Yrotation
                JOINT LeftFoot
                {
                    OFFSET 0.0 0.0 -397.0288948919567
                    CHANNELS 3 Zrotation Xrotation Yrotation
                    End Site
                    {
                        OFFSET 0.0 -0.1 0.0
                    }
                }
            }
        }
    }
    JOINT LowerBack
    {
        OFFSET 0.0 0.0 0.1
        CHANNELS 3 Zrotation Xrotation Yrotation
        JOINT Spine
        {
            OFFSET 0.0 0.0 217.99815546690175
            CHANNELS 3 Zrotation Xrotation Yrotation
            JOINT Spine1
            {
                OFFSET 0.0 0.0 252.94687706485257
                CHANNELS 3 Zrotation Xrotation Yrotation
                JOINT LeftShoulder
                {
                    OFFSET 0.1 0.0 0.0
                    CHANNELS 3 Zrotation Xrotation Yrotation
                    JOINT LeftArm
                    {
                        OFFSET 142.87902240156933 0.0 0.0
                        CHANNELS 3 Zrotation Xrotation Yrotation
                        JOINT LeftForeArm
                        {
                            OFFSET 254.45157047722682 0.0 0.0
                            CHANNELS 3 Zrotation Xrotation Yrotation
                            JOINT LeftHand
                            {
                                OFFSET 246.57690393175702 0.0 0.0
                                CHANNELS 3 Zrotation Xrotation Yrotation
                                End Site
                                {
                                    OFFSET 0.1 0.0 0.0
                                }
                            }
                        }
                    }
                }
                JOINT Neck
                {
                    OFFSET 0.0 0.0 0.1
                    CHANNELS 3 Zrotation Xrotation Yrotation
                    JOINT Neck1
                    {
                        OFFSET 0.0 0.0 108.70060151203043
                        CHANNELS 3 Zrotation Xrotation Yrotation
                        End Site
                        {
                            OFFSET 0.0 0.0 116.48533804876688
                        }
                    }
                }
                JOINT RightShoulder
                {
                    OFFSET -0.1 0.0 0.0
                    CHANNELS 3 Zrotation Xrotation Yrotation
                    JOINT RightArm
                    {
                        OFFSET -142.87902240156933 0.0 0.0
                        CHANNELS 3 Zrotation Xrotation Yrotation
                        JOINT RightForeArm
                        {
                            OFFSET -254.45157047722682 0.0 0.0
                            CHANNELS 3 Zrotation Xrotation Yrotation
                            JOINT RightHand
                            {
                                OFFSET -246.57690393175702 0.0 0.0
                                CHANNELS 3 Zrotation Xrotation Yrotation
                                End Site
                                {
                                    OFFSET -0.1 0.0 0.0
                                }
                            }
                        }
                    }
                }
            }
        }
    }
    JOINT RightHipJoint
    {
        OFFSET -0.1 0.0 0.0
        CHANNELS 3 Zrotation Xrotation Yrotation
        JOINT RightUpLeg
        {
            OFFSET -118.44365434326723 0.0 0.0
            CHANNELS 3 Zrotation Xrotation Yrotation
            JOINT RightLeg
            {
                OFFSET 0.0 0.0 -400.6561695361337
                CHANNELS 3 Zrotation Xrotation Yrotation
                JOINT RightFoot
                {
                    OFFSET 0.0 0.0 -397.0288948919567
                    CHANNELS 3 Zrotation Xrotation Yrotation
                    End Site
                    {
                        OFFSET 0.0 -0.1 0.0
                    }
                }
            }
        }
    }
}
MOTION
Frames: 10
Frame Time: 0.03333333333333333
0.0 0.0 807.4971536642992 26.631821813858757 -0.7567696662894685 4.2726032398153375 0.0 0.0 -1.4908850069360235e-16 0.13374966870471344 -17.210705740123448 -1.5855707667605867 -1.1380353455456829 29.213468607558237 -0.051216413599828106 0.0 0.0 -3.975693351829396e-16 0.0 0.0 -1.4908850069360235e-16 0.04692018482100023 -6.279614980231581 -0.2789181767265528 4.2992428310352215 3.064081586878501e-15 -5.128614022477922e-16 0.0 0.0 0.0 -37.79393682888369 15.448732247509971 77.90299587312988 -23.06829475269335 5.755682770699364e-15 3.609160250833066e-15 0.0 0.0 -7.951386703658792e-16 0.0 0.0 0.0 -9.046973397709344 -2.4802702380332295 1.8108553757945105 0.0 0.0 0.0 10.463858714510756 -42.27425648362371 -38.254215345239906 120.75862612820713 -5.9089237736013235e-15 3.957810031654695e-15 3.975693351829396e-16 0.0 0.0 0.0 0.0 -1.4908850069360235e-16 0.046292296254748296 -6.362446567964933 -1.399841694650108 -0.6756497469627393 20.291115134601696 -1.3520158678292165 0.0 0.0 3.975693351829396e-16
0.0 0.0 807.4971536642992 26.663904489760867 -0.779566968130228 4.285726134333686 0.0 0.0 1.4908850069360235e-16 0.15033001292272927 -17.249193567745596 -1.5856475544638782 -1.1782192792542727 29.407288072056126 -0.04511050466511075 0.0 0.0 -3.975693351829396e-16 0.0 0.0 1.4908850069360235e-16 0.05263149290575128 -6.2718589947947985 -0.28703336484568814 4.3014278147876635 1.4599946374533728e-15 -8.505288164578789e-16 0.0 0.0 0.0 -37.602429472849884 15.509061273111703 77.85044574951453 -23.23814936059636 -1.601441296357197e-15 7.788448901125538e-15 -1.5902773407317584e-15 1.1034765745125397e-32 -7.951386703658792e-16 0.0 0.0 0.0 -9.169919308281017 -2.635243430980363 1.7961472825656377 0.0 0.0 0.0 10.472318579474477 -42.33212870680232 -38.12644274014221 120.67932327173789 -5.143619450214155e-15 -1.0249402129612831e-14 0.0 0.0 0.0 0.0 0.0 1.4908850069360235e-16 0.05171227623162776 -6.306573841190872 -1.406875493068155 -0.6960470505416971 20.24474612764597 -1.2807609262086963 0.0 0.0 -7.951386703658792e-16
0.0 0.0 807.4971536642992 26.739340111186394 -0.8111596939763257 4.3066884686730065 0.0 0.0 -1.987846675914698e-16 0.1582450529296273 -17.266344320807256 -1.6227334360306038 -1.2156126506929117 29.443485001648746 0.019191499338903743 -3.1805546814635168e-15 -1.1034765745125397e-32 3.975693351829396e-16 0.0 0.0 -1.987846675914698e-16 0.05568784654974993 -6.309382597001666 -0.2886830640439347 4.2910146512696 -4.121745975380642e-16 -3.8240666011452253e-16 0.0 0.0 0.0 -37.40963862947776 15.576807532567495 77.89505802914836 -23.204728408880964 3.712440222157532e-15 1.354687788885972e-14 0.0 0.0 1.888454342118963e-15 0.0 0.0 0.0 -9.122523906016383 -2.585002003204583 1.7959056582925146 0.0 0.0 0.0 10.3678992282913 -42.160897895791514 -38.12158881996442 120.49752980058771 0.0 0.0 0.0 0.0 0.0 0.0 0.0 -1.987846675914698e-16 0.052384947488200946 -6.080157516503202 -1.4135076933238453 -0.7016408233331027 20.087367795615872 -1.356115428790784 0.0 0.0 3.975693351829396e-16
0.0 0.0 807.4971536642992 26.72028853140272 -0.8059442928354217 4.28404443322154 0.0 0.0 1.4908850069360235e-16 0.16664890907389948 -17.333579038272266 -1.587277091140821 -1.204850080350258 29.33017688389655 0.0640089282455872 0.0 0.0 -3.975693351829396e-16 0.0 0.0 1.4908850069360235e-16 0.05864016513327358 -6.330396169032294 -0.31093526686677947 4.316034216080314 -1.3605643706157063e-15 8.469722297250432e-16 0.0 1.5902773407317584e-15 0.0 -37.15905397655263 15.538570793054273 77.89261455719785 -23.29680764896337 -7.24902813251822e-15 1.9410971239187036e-14 1.5902773407317584e-15 1.5902773407317582e-15 -9.14409470920761e-15 0.0 1.5902773407317584e-15 0.0 -9.018935412366124 -2.590479566291387 1.930924807352373 0.0 1.5902773407317584e-15 0.0 10.393814413903582 -42.08471922173716 -37.95083236211352 120.31022269754155 -6.331258755650087e-15 1.1034945032825311e-14 0.0 0.0 0.0 0.0 0.0 1.4908850069360235e-16 0.054484602255905096 -6.017508435238978 -1.323681436636819 -0.6712447822606876 19.905479321489086 -1.4298230557370242 0.0 0.0 0.0
0.0 0.0 807.4971536642992 26.828051087128095 -1.0067323036682823 4.268383257293237 0.0 0.0 1.987846675914698e-16 0.17469140595094307 -17.09863674073821 -1.560794257831406 -1.2009794022336775 29.158703133296903 0.14097088831420276 0.0 0.0 3.975693351829396e-16 0.0 0.0 1.987846675914698e-16 0.06188470366614179 -6.279601162231716 -0.30771647008962577 4.307040565317269 3.9728854338107313e-16 -1.4939530646903038e-17 -6.3611093629270335e-15 2.2069531490250793e-32 -3.975693351829396e-16 -37.12171436618829 15.595104891557924 78.0428164776396 -23.182969297726537 -4.034264392568327e-15 1.1753751547241008e-14 -1.5902773407317584e-15 3.586298867165754e-32 -2.5842006786891076e-15 -6.3611093629270335e-15 2.2069531490250793e-32 -3.975693351829396e-16 -8.969277745554049 -2.4692964363059824 1.950578229852737 -6.3611093629270335e-15 2.2069531490250793e-32 -3.975693351829396e-16 10.495236830394347 -41.84267164441923 -37.750379287782096 120.03974414482823 -2.331341267285667e-15 -8.68862892231489e-15 0.0 0.0 0.0 0.0 0.0 1.987846675914698e-16 0.054479048963592236 -5.659729787038392 -1.2914257677970287 -0.6610402215841528 19.61275026759727 -1.3990552193734047 0.0 0.0 0.0
0.0 0.0 807.4971536642992 26.89690845916482 -1.2200763141079234 4.2525203464224095 0.0 0.0 1.987846675914698e-16 0.17537987376298556 -16.8205373167328 -1.5420105871830132 -1.1956426850721737 29.129341514075033 0.17861338293727072 0.0 0.0 3.975693351829396e-16 0.0 0.0 1.987846675914698e-16 0.062029655554474046 -6.162272739371299 -0.2918420703645405 4.352732152624039 8.78787806482527e-16 -4.312529244675551e-16 0.0 0.0 0.0 -36.95349332422909 15.701438319392274 78.03549028949946 -23.329000230906463 -6.7422266162744495e-15 -6.669280572660829e-15 0.0 0.0 -1.987846675914698e-16 0.0 0.0 0.0 -9.039267526699554 -2.4836212793147863 1.9943087466465064 0.0 0.0 0.0 10.460204501869084 -41.76436089313608 -37.65119511032677 119.51622862780994 2.74770294992306e-15 1.6018915633598943e-15 -4.969616689786745e-17 0.0 0.0 0.0 0.0 1.987846675914698e-16 0.051517734696624934 -5.24792457045488 -1.31058406369693 -0.66179045369032 19.33491626038612 -1.3094165808869496 0.0 0.0 3.975693351829396e-16
0.0 0.0 807.4971536642992 26.96062370553069 -1.3393961947904436 4.167948610287714 3.1805546814635164e-15 -9.93923337957349e-17 -1.9878466759146977e-16 0.17592167104208709 -16.65239311473928 -1.3946464991536554 -1.113350893101953 29.035626565883355 0.15923207281756924 -1.8621167194899106e-32 -1.7890620083232284e-15 -1.1927080055488188e-15 3.1805546814635164e-15 -9.93923337957349e-17 -1.9878466759146977e-16 0.062560969398044 -6.132025275137883 -0.23113654994106972 4.374324371358884 2.979597772296236e-16 -1.1379600587810438e-17 -6.3611093629270335e-15 1.6896696745274934e-15 9.379550883356588e-32 -36.64799002258769 15.548523371967486 77.94378132360896 -23.46047932934307 -2.5292683498293233e-15 -1.12854880838023e-14 1.5902773407317584e-15 3.862168010793889e-32 2.782985346280577e-15 -6.3611093629270335e-15 1.6896696745274934e-15 9.379550883356588e-32 -9.043771514360115 -2.456093206146161 2.0810198188359394 -6.3611093629270335e-15 1.6896696745274934e-15 9.379550883356588e-32 10.766563183179478 -41.338615474160875 -37.34623032759631 118.5996242256575 1.0426371942993892e-14 1.3588696864598721e-14 1.2424041724466862e-16 0.0 0.0 3.1805546814635164e-15 -9.93923337957349e-17 -1.9878466759146977e-16 0.05006682103986382 -5.040796757740186 -1.1983075581964 -0.6199418311693499 19.188900749785873 -1.3594281694666102 0.0 0.0 0.0
0.0 0.0 807.4971536642992 27.07800831165183 -1.397731210164902 4.127663460758878 0.0 0.0 0.0 0.17313156371770322 -16.477371114218016 -1.336530775284559 -1.0838322205256776 29.144887770204953 0.17354545450365755 0.0 0.0 -3.975693351829396e-16 0.0 0.0 0.0 0.06255297565303371 -6.163200873975116 -0.19929648457211854 4.439049433549284 -1.5890842780226367e-15 6.158877970985038e-17 0.0 0.0 0.0 -36.44925881803183 15.829856589370893 77.99954748952304 -23.616145147824344 2.00408383593182e-15 -1.814934332532521e-15 -1.5902773407317584e-15 1.3793457181406746e-32 -9.93923337957349e-16 0.0 0.0 0.0 -9.109206651106119 -2.4519810203797685 2.144821625133295 0.0 0.0 0.0 10.806770326846129 -40.988459876551744 -37.1525414641931 117.86349074483398 -2.7243141129247305e-15 -1.6413533123305994e-15 1.987846675914698e-16 0.0 0.0 0.0 0.0 0.0 0.04742050488514283 -4.811555666082692 -1.2013841893720327 -0.6185917313250052 19.151990053349206 -1.3398457046393 0.0 0.0 0.0
0.0 0.0 807.4971536642992 27.18690327418977 -1.4580732151285205 4.102428696408791 0.0 0.0 1.987846675914698e-16 0.1680434481014846 -16.34654148095498 -1.3126843162030604 -1.068549050295399 29.273626725822 0.18638533038331004 0.0 0.0 -7.951386703658792e-16 0.0 0.0 1.987846675914698e-16 0.061272378289617804 -6.171903847452204 -0.15394257508319617 4.514449259330487 -1.6883586224626038e-15 6.654901181853402e-17 0.0 0.0 0.0 -35.85192216578217 16.02917007599363 77.92981378215403 -23.83073522389919 -5.283673974881351e-15 1.9325061259390287e-15 -1.5902773407317584e-15 2.758691436281349e-32 -1.987846675914698e-15 0.0 0.0 0.0 -9.114917058001321 -2.396938617750949 2.1159423112989835 0.0 0.0 0.0 10.850097222235842 -40.77717555887108 -36.92364683273146 116.98705961624393 0.0 0.0 1.987846675914698e-16 0.0 0.0 0.0 0.0 1.987846675914698e-16 0.045844771741676525 -4.766993231082976 -1.224537222560581 -0.6226584924408086 19.164883351301246 -1.3061599301278128 0.0 0.0 0.0
0.0 0.0 807.4971536642992 27.358164467810028 -1.333807662471104 4.14539107374701 0.0 0.0 1.987846675914698e-16 0.15581750954456566 -16.588903405878973 -1.4009146655708482 -1.1046098628913603 29.61781257066365 0.2695348260338402 0.0 0.0 0.0 0.0 0.0 1.987846675914698e-16 0.05638608338155238 -6.228652431993369 -0.171988022376186 4.64512607938174 1.6399468184085506e-15 -1.260202534638683e-15 5.172546443027529e-33 1.4908850069360234e-15 -3.975693351829396e-16 -35.30010993151602 16.19381978590465 77.77351570515944 -24.37555953354787 -5.01933746601886e-16 9.856641702183318e-15 1.5902773407317588e-15 -2.4828222926532145e-32 -1.7890620083232284e-15 5.172546443027529e-33 1.4908850069360234e-15 -3.975693351829396e-16 -9.134091996762708 -2.324039639286224 2.0438529709519466 5.172546443027529e-33 1.4908850069360234e-15 -3.975693351829396e-16 11.280648079935437 -40.53311018443793 -36.32779169838177 115.0750723772948 1.146502090861082e-14 -2.456840008021653e-16 -3.975693351829396e-16 0.0 0.0 0.0 0.0 1.987846675914698e-16 0.04353376833831972 -4.9775303021674935 -1.4327148671050123 -0.6867464481820165 19.401523510405482 -1.0497909210581542 0.0 0.0 0.0
